<?xml version="1.0" standalone="no"?>
<!DOCTYPE svg PUBLIC "-//W3C//DTD SVG 20010904//EN"
 "http://www.w3.org/TR/2001/REC-SVG-20010904/DTD/svg10.dtd">
<svg version="1.0" xmlns="http://www.w3.org/2000/svg"
 width="1280.000000pt" height="1124.000000pt" viewBox="0 0 1280.000000 1124.000000"
 preserveAspectRatio="xMidYMid meet">
<metadata>
Created by potrace 1.15, written by Peter Selinger 2001-2017
</metadata>
<g transform="translate(0.000000,1124.000000) scale(0.100000,-0.100000)"
fill="#000000" stroke="none">
<path d="M7340 11233 c-143 -24 -294 -94 -389 -179 -74 -68 -183 -228 -221
-327 -83 -212 -77 -469 15 -742 39 -115 141 -323 217 -445 136 -218 227 -600
228 -955 0 -178 -16 -305 -55 -440 -35 -119 -99 -255 -120 -255 -34 0 -132 56
-178 102 -93 93 -134 227 -162 528 -27 299 -54 421 -118 528 -35 59 -91 95
-196 126 -214 63 -344 -73 -328 -343 16 -270 156 -521 350 -631 157 -88 256
-259 245 -418 -11 -154 -112 -242 -242 -213 -57 13 -146 61 -202 110 -47 42
-202 116 -309 148 -83 24 -104 27 -265 27 -201 0 -272 -14 -414 -83 -215 -104
-374 -304 -436 -547 -69 -269 -2 -549 168 -705 131 -120 290 -145 492 -77 82
28 212 30 285 5 104 -36 188 -122 237 -245 19 -48 23 -75 23 -177 0 -111 -2
-125 -29 -182 -34 -74 -93 -133 -159 -158 -60 -23 -168 -16 -249 14 -91 35
-165 99 -356 305 -369 399 -517 518 -705 567 -110 29 -193 23 -298 -22 -42
-19 -49 -26 -68 -77 -88 -241 -365 -470 -605 -501 l-51 -7 45 -23 c94 -49 228
-150 328 -246 282 -270 403 -558 332 -788 -35 -114 -134 -237 -219 -274 -47
-20 -192 -28 -277 -14 -103 16 -220 52 -459 141 -252 94 -349 120 -470 127
-160 10 -275 -35 -391 -151 -89 -89 -115 -149 -122 -283 -8 -168 41 -291 159
-397 180 -162 426 -165 749 -10 133 64 218 112 422 238 82 50 171 105 199 123
88 54 180 78 294 77 134 0 198 -25 275 -103 65 -66 90 -129 90 -226 l0 -63 41
-7 c64 -11 174 -71 214 -117 70 -82 92 -199 60 -318 -27 -104 -74 -179 -170
-276 -98 -98 -182 -150 -290 -178 -69 -18 -106 -54 -156 -153 -26 -53 -31 -71
-27 -113 7 -71 44 -122 115 -157 114 -56 258 -29 343 63 54 59 78 118 95 234
8 52 22 116 32 142 25 70 80 137 142 172 75 41 196 49 298 18 142 -44 270
-149 330 -269 24 -50 28 -70 28 -143 0 -65 -5 -94 -20 -124 -19 -37 -24 -41
-85 -53 -125 -25 -203 -71 -239 -140 -17 -33 -13 -103 8 -148 44 -94 161 -189
280 -226 36 -11 115 -24 176 -29 141 -10 213 -36 277 -99 88 -87 79 -151 -57
-431 -52 -107 -98 -214 -104 -237 -9 -42 -8 -43 34 -82 90 -83 177 -103 234
-55 43 36 80 119 146 329 92 290 153 397 257 449 94 47 195 32 376 -56 103
-50 164 -114 182 -189 22 -89 1 -166 -93 -348 -44 -86 -110 -215 -147 -287
-81 -157 -104 -243 -98 -354 4 -70 10 -89 59 -185 68 -134 128 -204 216 -247
60 -29 74 -32 152 -31 174 1 338 97 443 257 124 191 96 439 -63 562 -111 85
-196 208 -230 329 -21 74 -18 237 5 305 44 129 123 234 225 299 147 94 371
100 526 15 110 -61 207 -55 312 18 32 22 126 109 208 193 165 168 206 195 293
195 100 0 170 -55 324 -250 41 -53 144 -163 229 -245 325 -316 516 -513 571
-590 111 -156 163 -283 213 -514 91 -425 321 -779 606 -934 110 -60 196 -81
334 -82 134 0 179 11 299 73 378 196 490 781 225 1168 -42 62 -108 126 -198
192 -180 134 -345 182 -695 202 -506 29 -600 41 -740 94 -161 61 -268 151
-407 342 -205 280 -346 562 -419 837 -96 359 -75 659 66 968 24 53 44 103 44
112 0 8 21 57 46 108 87 174 247 303 450 361 116 33 340 33 471 0 85 -22 129
-42 332 -148 69 -36 81 -39 155 -39 64 0 91 5 127 23 183 90 227 313 79 404
-93 57 -189 61 -406 14 -269 -57 -352 -69 -484 -70 -145 -1 -215 16 -297 69
-88 58 -144 155 -169 293 -38 216 2 316 144 359 47 14 99 17 287 18 249 0 275
5 303 55 11 20 12 33 3 66 l-11 42 -61 -19 c-241 -75 -549 79 -549 275 0 94
50 153 192 228 266 139 327 154 723 178 427 26 569 63 682 177 58 59 90 130
100 224 l6 59 -48 21 c-123 54 -250 45 -407 -29 -46 -21 -180 -104 -298 -183
-299 -201 -414 -257 -571 -279 -190 -27 -255 13 -472 286 -185 234 -294 306
-477 318 -63 4 -66 5 -87 43 -34 59 -53 144 -43 189 19 85 94 115 361 145 303
33 407 66 489 155 48 53 68 115 76 247 10 165 -32 297 -129 403 -183 200 -477
213 -646 28 -53 -58 -111 -166 -131 -244 -14 -54 -107 -181 -155 -210 -18 -11
-44 -20 -57 -20 -53 0 -75 52 -118 287 -47 255 -82 338 -156 369 -55 23 -109
3 -209 -76 -88 -69 -154 -107 -243 -140 -299 -109 -594 -18 -704 216 -42 90
-49 212 -20 329 100 397 145 499 422 950 239 390 317 555 367 770 42 179 32
434 -24 610 -73 233 -311 389 -586 384 -40 -1 -83 -4 -97 -6z"/>
<path d="M8580 9756 c-78 -17 -126 -43 -165 -88 -91 -107 -87 -277 9 -400 117
-148 260 -149 365 -2 53 74 81 152 88 241 8 95 -10 156 -57 203 -56 56 -130
70 -240 46z"/>
<path d="M1934 7330 c-98 -21 -168 -71 -205 -146 -47 -98 -18 -276 69 -422
107 -178 279 -301 549 -391 50 -16 196 -58 323 -91 232 -61 391 -110 443 -136
15 -8 27 -10 27 -5 0 5 -4 11 -9 13 -15 6 -152 169 -236 283 -156 210 -301
437 -381 598 -72 142 -185 234 -342 281 -67 19 -185 28 -238 16z"/>
<path d="M620 6355 c-196 -39 -355 -136 -468 -286 -88 -117 -140 -253 -149
-389 -6 -105 10 -181 67 -304 97 -213 239 -337 445 -390 243 -64 623 -19 955
112 41 16 102 33 135 36 96 11 241 53 332 96 215 100 347 245 346 379 0 74
-21 119 -84 186 -58 61 -79 75 -304 202 -378 214 -624 314 -874 357 -112 19
-308 20 -401 1z"/>
<path d="M12470 3344 c-63 -26 -108 -128 -91 -205 36 -160 131 -248 235 -219
56 15 118 67 153 128 36 61 39 155 7 199 -27 36 -78 71 -123 83 -48 12 -162
21 -181 14z"/>
<path d="M4108 1032 c-19 -10 -55 -34 -79 -54 -24 -19 -85 -62 -135 -95 -206
-138 -279 -245 -259 -379 5 -35 17 -57 48 -91 52 -56 84 -73 142 -73 63 0 106
20 171 82 131 123 230 326 241 495 5 78 5 82 -20 107 -31 31 -60 33 -109 8z"/>
</g>
</svg>
